<mxfile host="app.diagrams.net" modified="2022-06-09T02:52:27.868Z" agent="5.0 (Macintosh; Intel Mac OS X 10_15_7) AppleWebKit/605.1.15 (KHTML, like Gecko) Version/15.5 Safari/605.1.15" etag="FlqZl1mfQxizBCFzw8aF" version="19.0.0" type="github">
  <diagram id="l3QEwm9TnRtwAAaQ0Mxf" name="Page-1">
    <mxGraphModel dx="1327" dy="799" grid="1" gridSize="10" guides="1" tooltips="1" connect="1" arrows="1" fold="1" page="1" pageScale="1" pageWidth="1169" pageHeight="827" math="0" shadow="0">
      <root>
        <mxCell id="0" />
        <mxCell id="1" parent="0" />
        <mxCell id="19lbJrdx9-RgZEQXHKdU-22" style="edgeStyle=none;rounded=0;orthogonalLoop=1;jettySize=auto;html=1;exitX=1;exitY=0.5;exitDx=0;exitDy=0;entryX=0;entryY=0.5;entryDx=0;entryDy=0;fontSize=18;startArrow=none;startFill=0;endArrow=classic;endFill=1;" edge="1" parent="1" source="19lbJrdx9-RgZEQXHKdU-1" target="19lbJrdx9-RgZEQXHKdU-3">
          <mxGeometry relative="1" as="geometry" />
        </mxCell>
        <mxCell id="19lbJrdx9-RgZEQXHKdU-24" style="edgeStyle=none;rounded=0;orthogonalLoop=1;jettySize=auto;html=1;exitX=1;exitY=0;exitDx=0;exitDy=0;entryX=0;entryY=0.5;entryDx=0;entryDy=0;fontSize=18;startArrow=none;startFill=0;endArrow=classic;endFill=1;" edge="1" parent="1" source="19lbJrdx9-RgZEQXHKdU-1" target="19lbJrdx9-RgZEQXHKdU-2">
          <mxGeometry relative="1" as="geometry" />
        </mxCell>
        <mxCell id="19lbJrdx9-RgZEQXHKdU-1" value="用户" style="ellipse;whiteSpace=wrap;html=1;fontSize=18;" vertex="1" parent="1">
          <mxGeometry x="35" y="374" width="120" height="80" as="geometry" />
        </mxCell>
        <mxCell id="19lbJrdx9-RgZEQXHKdU-25" style="edgeStyle=none;rounded=0;orthogonalLoop=1;jettySize=auto;html=1;exitX=1;exitY=0.5;exitDx=0;exitDy=0;entryX=0;entryY=0;entryDx=0;entryDy=0;fontSize=18;startArrow=none;startFill=0;endArrow=classic;endFill=1;" edge="1" parent="1" source="19lbJrdx9-RgZEQXHKdU-2" target="19lbJrdx9-RgZEQXHKdU-4">
          <mxGeometry relative="1" as="geometry" />
        </mxCell>
        <mxCell id="19lbJrdx9-RgZEQXHKdU-2" value="填写数据" style="rounded=0;whiteSpace=wrap;html=1;fontSize=18;strokeWidth=1;" vertex="1" parent="1">
          <mxGeometry x="205" y="270" width="110" height="60" as="geometry" />
        </mxCell>
        <mxCell id="19lbJrdx9-RgZEQXHKdU-23" style="edgeStyle=none;rounded=0;orthogonalLoop=1;jettySize=auto;html=1;exitX=1;exitY=0.5;exitDx=0;exitDy=0;entryX=0;entryY=0.5;entryDx=0;entryDy=0;fontSize=18;startArrow=none;startFill=0;endArrow=classic;endFill=1;" edge="1" parent="1" source="19lbJrdx9-RgZEQXHKdU-3" target="19lbJrdx9-RgZEQXHKdU-4">
          <mxGeometry relative="1" as="geometry" />
        </mxCell>
        <mxCell id="19lbJrdx9-RgZEQXHKdU-3" value="查询数据" style="rounded=0;whiteSpace=wrap;html=1;fontSize=18;strokeWidth=1;" vertex="1" parent="1">
          <mxGeometry x="205" y="384" width="110" height="60" as="geometry" />
        </mxCell>
        <mxCell id="19lbJrdx9-RgZEQXHKdU-17" style="edgeStyle=none;rounded=0;orthogonalLoop=1;jettySize=auto;html=1;exitX=1;exitY=0;exitDx=0;exitDy=0;entryX=0;entryY=0.5;entryDx=0;entryDy=0;fontSize=18;startArrow=none;startFill=0;endArrow=classic;endFill=1;" edge="1" parent="1" source="19lbJrdx9-RgZEQXHKdU-4" target="19lbJrdx9-RgZEQXHKdU-5">
          <mxGeometry relative="1" as="geometry" />
        </mxCell>
        <mxCell id="19lbJrdx9-RgZEQXHKdU-26" style="edgeStyle=none;rounded=0;orthogonalLoop=1;jettySize=auto;html=1;exitX=0;exitY=1;exitDx=0;exitDy=0;entryX=1;entryY=0.5;entryDx=0;entryDy=0;fontSize=18;startArrow=none;startFill=0;endArrow=classic;endFill=1;" edge="1" parent="1" source="19lbJrdx9-RgZEQXHKdU-4" target="19lbJrdx9-RgZEQXHKdU-21">
          <mxGeometry relative="1" as="geometry" />
        </mxCell>
        <mxCell id="19lbJrdx9-RgZEQXHKdU-4" value="前端" style="ellipse;whiteSpace=wrap;html=1;fontSize=18;" vertex="1" parent="1">
          <mxGeometry x="375" y="374" width="120" height="80" as="geometry" />
        </mxCell>
        <mxCell id="19lbJrdx9-RgZEQXHKdU-18" style="edgeStyle=none;rounded=0;orthogonalLoop=1;jettySize=auto;html=1;exitX=1;exitY=0.5;exitDx=0;exitDy=0;entryX=0;entryY=0;entryDx=0;entryDy=0;fontSize=18;startArrow=none;startFill=0;endArrow=classic;endFill=1;" edge="1" parent="1" source="19lbJrdx9-RgZEQXHKdU-5" target="19lbJrdx9-RgZEQXHKdU-6">
          <mxGeometry relative="1" as="geometry" />
        </mxCell>
        <mxCell id="19lbJrdx9-RgZEQXHKdU-5" value="HTTP&lt;br&gt;GET/POST" style="rounded=0;whiteSpace=wrap;html=1;fontSize=18;strokeWidth=1;" vertex="1" parent="1">
          <mxGeometry x="555" y="314" width="110" height="60" as="geometry" />
        </mxCell>
        <mxCell id="19lbJrdx9-RgZEQXHKdU-12" style="edgeStyle=none;rounded=0;orthogonalLoop=1;jettySize=auto;html=1;exitX=1;exitY=0;exitDx=0;exitDy=0;entryX=0;entryY=0.5;entryDx=0;entryDy=0;fontSize=18;startArrow=none;startFill=0;endArrow=classic;endFill=1;" edge="1" parent="1" source="19lbJrdx9-RgZEQXHKdU-6" target="19lbJrdx9-RgZEQXHKdU-8">
          <mxGeometry relative="1" as="geometry" />
        </mxCell>
        <mxCell id="19lbJrdx9-RgZEQXHKdU-19" style="edgeStyle=none;rounded=0;orthogonalLoop=1;jettySize=auto;html=1;exitX=0;exitY=1;exitDx=0;exitDy=0;entryX=1;entryY=0.5;entryDx=0;entryDy=0;fontSize=18;startArrow=none;startFill=0;endArrow=classic;endFill=1;" edge="1" parent="1" source="19lbJrdx9-RgZEQXHKdU-6" target="19lbJrdx9-RgZEQXHKdU-16">
          <mxGeometry relative="1" as="geometry" />
        </mxCell>
        <mxCell id="19lbJrdx9-RgZEQXHKdU-6" value="后端(Django)" style="ellipse;whiteSpace=wrap;html=1;fontSize=18;" vertex="1" parent="1">
          <mxGeometry x="705" y="374" width="120" height="80" as="geometry" />
        </mxCell>
        <mxCell id="19lbJrdx9-RgZEQXHKdU-14" style="edgeStyle=none;rounded=0;orthogonalLoop=1;jettySize=auto;html=1;exitX=0;exitY=1;exitDx=0;exitDy=0;entryX=1;entryY=0.5;entryDx=0;entryDy=0;fontSize=18;startArrow=none;startFill=0;endArrow=classic;endFill=1;" edge="1" parent="1" source="19lbJrdx9-RgZEQXHKdU-7" target="19lbJrdx9-RgZEQXHKdU-9">
          <mxGeometry relative="1" as="geometry" />
        </mxCell>
        <mxCell id="19lbJrdx9-RgZEQXHKdU-7" value="MySQL" style="ellipse;whiteSpace=wrap;html=1;fontSize=18;" vertex="1" parent="1">
          <mxGeometry x="1015" y="374" width="120" height="80" as="geometry" />
        </mxCell>
        <mxCell id="19lbJrdx9-RgZEQXHKdU-13" style="edgeStyle=none;rounded=0;orthogonalLoop=1;jettySize=auto;html=1;exitX=1;exitY=0.5;exitDx=0;exitDy=0;entryX=0;entryY=0;entryDx=0;entryDy=0;fontSize=18;startArrow=none;startFill=0;endArrow=classic;endFill=1;" edge="1" parent="1" source="19lbJrdx9-RgZEQXHKdU-8" target="19lbJrdx9-RgZEQXHKdU-7">
          <mxGeometry relative="1" as="geometry" />
        </mxCell>
        <mxCell id="19lbJrdx9-RgZEQXHKdU-8" value="数据库操作" style="rounded=0;whiteSpace=wrap;html=1;fontSize=18;strokeWidth=1;" vertex="1" parent="1">
          <mxGeometry x="870" y="314" width="110" height="60" as="geometry" />
        </mxCell>
        <mxCell id="19lbJrdx9-RgZEQXHKdU-15" style="edgeStyle=none;rounded=0;orthogonalLoop=1;jettySize=auto;html=1;exitX=0;exitY=0.5;exitDx=0;exitDy=0;entryX=1;entryY=1;entryDx=0;entryDy=0;fontSize=18;startArrow=none;startFill=0;endArrow=classic;endFill=1;" edge="1" parent="1" source="19lbJrdx9-RgZEQXHKdU-9" target="19lbJrdx9-RgZEQXHKdU-6">
          <mxGeometry relative="1" as="geometry" />
        </mxCell>
        <mxCell id="19lbJrdx9-RgZEQXHKdU-9" value="返回结果" style="rounded=0;whiteSpace=wrap;html=1;fontSize=18;strokeWidth=1;" vertex="1" parent="1">
          <mxGeometry x="870" y="454" width="110" height="60" as="geometry" />
        </mxCell>
        <mxCell id="19lbJrdx9-RgZEQXHKdU-20" style="edgeStyle=none;rounded=0;orthogonalLoop=1;jettySize=auto;html=1;exitX=0;exitY=0.5;exitDx=0;exitDy=0;entryX=1;entryY=1;entryDx=0;entryDy=0;fontSize=18;startArrow=none;startFill=0;endArrow=classic;endFill=1;" edge="1" parent="1" source="19lbJrdx9-RgZEQXHKdU-16" target="19lbJrdx9-RgZEQXHKdU-4">
          <mxGeometry relative="1" as="geometry" />
        </mxCell>
        <mxCell id="19lbJrdx9-RgZEQXHKdU-16" value="渲染模板" style="rounded=0;whiteSpace=wrap;html=1;fontSize=18;strokeWidth=1;" vertex="1" parent="1">
          <mxGeometry x="555" y="454" width="110" height="60" as="geometry" />
        </mxCell>
        <mxCell id="19lbJrdx9-RgZEQXHKdU-27" style="edgeStyle=none;rounded=0;orthogonalLoop=1;jettySize=auto;html=1;exitX=0;exitY=0.5;exitDx=0;exitDy=0;entryX=1;entryY=1;entryDx=0;entryDy=0;fontSize=18;startArrow=none;startFill=0;endArrow=classic;endFill=1;" edge="1" parent="1" source="19lbJrdx9-RgZEQXHKdU-21" target="19lbJrdx9-RgZEQXHKdU-1">
          <mxGeometry relative="1" as="geometry" />
        </mxCell>
        <mxCell id="19lbJrdx9-RgZEQXHKdU-21" value="呈现结果" style="rounded=0;whiteSpace=wrap;html=1;fontSize=18;strokeWidth=1;" vertex="1" parent="1">
          <mxGeometry x="205" y="490" width="110" height="60" as="geometry" />
        </mxCell>
      </root>
    </mxGraphModel>
  </diagram>
</mxfile>
